<?xml version="1.0" standalone="no"?>
<!DOCTYPE svg PUBLIC "-//W3C//DTD SVG 20010904//EN"
 "http://www.w3.org/TR/2001/REC-SVG-20010904/DTD/svg10.dtd">
<svg version="1.0" xmlns="http://www.w3.org/2000/svg"
 width="640.000000pt" height="640.000000pt" viewBox="0 0 640.000000 640.000000"
 preserveAspectRatio="xMidYMid meet">

<g transform="translate(0.000000,640.000000) scale(0.100000,-0.100000)"
fill="#000000" stroke="none">
<path d="M0 3200 l0 -3200 3200 0 3200 0 0 3200 0 3200 -3200 0 -3200 0 0
-3200z m3615 2731 c267 -45 474 -102 680 -186 412 -169 769 -421 1034 -730
343 -399 546 -820 651 -1350 81 -404 65 -786 -52 -1225 -170 -642 -588 -1204
-1169 -1569 -298 -186 -675 -335 -1023 -402 -129 -24 -429 -43 -581 -35 -142
7 -386 39 -499 65 -45 10 -99 22 -121 26 -186 33 -623 230 -880 397 -437 284
-742 632 -960 1093 -99 210 -146 350 -200 590 -153 684 -22 1429 355 2030 207
331 431 571 735 789 153 110 249 167 440 258 279 132 605 227 885 257 58 6
119 13 135 15 81 11 456 -4 570 -23z"/>
<path d="M2958 5745 c-510 -70 -952 -255 -1338 -562 -121 -96 -353 -331 -441
-448 -271 -358 -436 -736 -510 -1170 -30 -174 -33 -593 -6 -748 44 -254 98
-432 192 -638 205 -452 521 -821 934 -1090 117 -77 372 -210 503 -262 230 -93
552 -160 873 -182 105 -8 381 9 510 31 426 72 882 282 1240 573 241 195 442
445 619 769 94 173 189 429 222 599 78 406 83 686 19 1011 -138 691 -519 1281
-1071 1658 -275 188 -570 320 -902 404 -257 65 -605 87 -844 55z m402 -185
c319 -24 613 -104 890 -241 279 -139 451 -260 656 -464 342 -340 562 -758 658
-1250 47 -236 56 -432 31 -650 -34 -306 -91 -509 -223 -796 -77 -167 -256
-430 -401 -589 l-59 -65 -7 50 c-44 337 -191 668 -424 957 -51 64 -170 166
-265 230 -7 4 -3 15 11 30 35 39 112 182 142 265 46 126 74 328 69 497 -4 131
-7 148 -42 246 -20 58 -39 112 -42 120 -4 11 17 31 63 62 134 92 200 182 222
303 36 198 -116 344 -410 392 l-99 16 2 191 c3 226 -3 247 -89 327 -97 88
-215 134 -449 176 -144 25 -180 28 -379 27 -221 -1 -254 -4 -464 -49 -178 -39
-302 -113 -373 -224 l-28 -45 0 -207 0 -208 -57 -6 c-197 -20 -380 -121 -434
-240 -24 -53 -25 -150 -1 -213 37 -96 145 -211 243 -257 l37 -18 -28 -61 c-31
-68 -65 -221 -74 -336 -19 -214 62 -529 177 -694 23 -33 46 -66 50 -73 4 -7
-7 -20 -30 -34 -61 -37 -150 -107 -204 -161 -80 -79 -238 -327 -299 -467 -44
-102 -118 -333 -130 -406 -12 -75 -38 -165 -48 -165 -13 0 -77 71 -172 190
-298 376 -451 728 -511 1170 -18 135 -16 489 4 617 79 502 311 963 667 1323
167 169 295 275 433 359 382 232 722 345 1112 370 66 5 125 9 130 10 6 0 71
-4 145 -9z m235 -374 c61 -14 133 -33 160 -42 51 -16 155 -73 155 -85 0 -13
-107 3 -205 31 -164 46 -242 55 -470 54 -262 -1 -425 -28 -488 -82 -25 -22
-16 -25 143 -61 74 -16 158 -35 185 -41 28 -6 55 -11 62 -12 22 -2 21 -34 -1
-38 -53 -11 -213 1 -331 24 -71 14 -136 26 -144 26 -12 0 -13 -27 -7 -168 4
-92 4 -171 0 -175 -9 -9 -104 43 -105 57 -1 6 -1 90 1 186 2 143 5 178 18 193
32 36 107 77 196 107 146 48 249 60 501 55 193 -3 234 -7 330 -29z m-832 -764
c137 -46 368 -76 532 -69 207 8 460 64 590 131 33 17 63 32 68 34 4 2 7 -44 7
-101 l0 -105 -32 -19 c-103 -60 -331 -129 -513 -153 -105 -15 -232 -9 -414 20
-163 25 -254 51 -349 99 -121 61 -120 60 -124 171 l-3 95 73 -37 c41 -20 115
-50 165 -66z m1507 47 c131 -32 189 -91 177 -182 -19 -143 -312 -296 -737
-385 l-175 -37 -265 1 c-309 0 -405 13 -700 94 -242 67 -397 143 -477 234 -45
51 -57 88 -43 137 18 63 80 109 187 140 96 27 103 26 103 -16 0 -30 -3 -35
-22 -35 -40 0 -120 -34 -150 -63 -41 -41 -37 -71 15 -108 75 -55 107 -68 531
-220 153 -55 254 -70 511 -76 196 -5 232 -3 330 16 119 23 307 82 450 141 50
21 119 50 155 65 98 40 128 57 161 91 56 58 22 104 -98 135 l-68 17 -3 40 c-3
35 0 40 15 36 10 -2 56 -13 103 -25z m-1830 -667 c169 -60 520 -125 745 -137
248 -14 665 52 905 144 30 12 58 21 62 21 4 0 16 -30 27 -67 71 -241 49 -529
-56 -738 -117 -232 -260 -356 -552 -482 -203 -87 -435 -93 -637 -17 -105 39
-239 113 -321 176 -97 74 -227 240 -283 361 -95 205 -114 525 -42 709 31 79
19 77 152 30z m855 -1561 c123 -9 188 -33 262 -96 51 -43 99 -137 108 -208 9
-72 -14 -155 -57 -209 -55 -68 -55 -65 5 -123 78 -76 100 -138 95 -265 -2 -77
-8 -104 -28 -145 -50 -100 -173 -188 -287 -205 -32 -4 -171 -5 -310 -2 l-251
7 -5 628 -5 627 181 -1 c100 0 232 -4 292 -8z"/>
<path d="M2715 3631 c-176 -43 -282 -253 -205 -405 14 -27 44 -71 68 -97 108
-121 255 -132 401 -31 67 47 119 133 128 214 l6 53 -43 -53 c-64 -80 -107 -95
-194 -71 -50 14 -82 46 -96 99 -14 52 -6 92 27 131 34 41 118 81 165 81 21 -1
38 3 38 8 0 14 -102 59 -159 70 -60 11 -92 11 -136 1z"/>
<path d="M3590 3621 c-77 -25 -109 -43 -152 -88 -48 -49 -68 -108 -68 -197 0
-119 67 -228 173 -280 171 -86 427 45 454 232 5 36 5 37 -11 15 -30 -40 -98
-73 -152 -73 -135 0 -204 122 -130 229 43 61 94 85 170 78 l61 -5 -44 39 c-75
67 -190 86 -301 50z"/>
<path d="M3030 1895 l0 -145 160 0 c180 0 206 7 240 63 27 43 26 119 0 162
-35 56 -68 65 -244 65 l-156 0 0 -145z"/>
<path d="M3026 1540 c-2 -3 -1 -83 2 -177 l4 -173 165 0 c184 0 219 9 267 73
41 53 44 111 9 177 -45 86 -79 98 -281 102 -90 2 -165 1 -166 -2z"/>
</g>
</svg>
